Light Narrow — UC.ufo
<glyph name="A" format="1">
  <advance width="1153"/>
  <unicode hex="0041"/>
  <outline>
    <contour>
      <point x="726" y="1486" type="move" name="top"/>
    </contour>
    <contour>
      <point x="961" y="20" type="move" name="ogonek"/>
    </contour>
    <contour>
      <point x="504" y="0" type="move" name="bottom"/>
    </contour>
    <contour>
      <point x="-93" y="68" type="line"/>
      <point x="-101" y="0" type="line"/>
      <point x="309" y="0" type="line"/>
      <point x="315" y="68" type="line"/>
      <point x="160" y="92" type="line"/>
      <point x="645" y="1265" type="line"/>
      <point x="722" y="1433" type="line"/>
      <point x="687" y="1439" type="line"/>
      <point x="700" y="1255" type="line"/>
      <point x="834" y="90" type="line"/>
      <point x="681" y="68" type="line"/>
      <point x="677" y="0" type="line"/>
      <point x="1127" y="0" type="line"/>
      <point x="1132" y="68" type="line"/>
      <point x="992" y="94" type="line"/>
      <point x="803" y="1498" type="line"/>
      <point x="647" y="1498" type="line"/>
      <point x="25" y="90" type="line"/>
    </contour>
    <contour>
      <point x="310" y="544" type="line"/>
      <point x="266" y="449" type="line"/>
      <point x="832" y="449" type="line"/>
      <point x="820" y="544" type="line"/>
    </contour>
  </outline>
</glyph>
<glyph name="B" format="1">
  <advance width="1087"/>
  <unicode hex="0042"/>
  <outline>
    <contour>
      <point x="712" y="1486" type="move" name="top"/>
    </contour>
    <contour>
      <point x="504" y="0" type="move" name="bottom"/>
    </contour>
    <contour>
      <point x="431" y="-14" type="curve"/>
      <point x="749" y="-14"/>
      <point x="1011" y="124"/>
      <point x="1014" y="477" type="curve"/>
      <point x="1016" y="650"/>
      <point x="901" y="767"/>
      <point x="753" y="788" type="curve"/>
      <point x="929" y="842"/>
      <point x="1036" y="976"/>
      <point x="1036" y="1190" type="curve"/>
      <point x="1038" y="1357"/>
      <point x="936" y="1500"/>
      <point x="665" y="1500" type="curve"/>
      <point x="576" y="1500"/>
      <point x="497" y="1488"/>
      <point x="417" y="1486" type="curve"/>
      <point x="201" y="1486" type="line"/>
      <point x="192" y="1408" type="line"/>
      <point x="307" y="1388" type="line"/>
      <point x="139" y="92" type="line"/>
      <point x="13" y="68" type="line"/>
      <point x="5" y="0" type="line"/>
      <point x="200" y="0" type="line" smooth="yes"/>
      <point x="260" y="0"/>
      <point x="363" y="-14"/>
    </contour>
    <contour>
      <point x="277" y="110" type="curve"/>
      <point x="282" y="28" type="line"/>
      <point x="379" y="791" type="line"/>
      <point x="344" y="714" type="line"/>
      <point x="391" y="716"/>
      <point x="458" y="719"/>
      <point x="586" y="719" type="curve"/>
      <point x="760" y="719"/>
      <point x="852" y="635"/>
      <point x="851" y="460" type="curve"/>
      <point x="849" y="180"/>
      <point x="682" y="83"/>
      <point x="463" y="83" type="curve"/>
      <point x="417" y="83"/>
      <point x="269" y="91"/>
    </contour>
    <contour>
      <point x="351" y="821" type="curve"/>
      <point x="376" y="742" type="line"/>
      <point x="469" y="1470" type="line"/>
      <point x="436" y="1395" type="line"/>
      <point x="450" y="1400"/>
      <point x="584" y="1410"/>
      <point x="628" y="1410" type="curve"/>
      <point x="810" y="1410"/>
      <point x="887" y="1327"/>
      <point x="886" y="1171" type="curve"/>
      <point x="884" y="932"/>
      <point x="743" y="819"/>
      <point x="569" y="819" type="curve"/>
      <point x="496" y="819"/>
      <point x="411" y="816"/>
    </contour>
  </outline>
</glyph>
<glyph name="C" format="1">
  <advance width="1084"/>
  <unicode hex="0043"/>
  <outline>
    <contour>
      <point x="756" y="1486" type="move" name="top"/>
    </contour>
    <contour>
      <point x="540" y="0" type="move" name="bottom"/>
    </contour>
    <contour>
      <point x="528" y="-16" type="curve"/>
      <point x="714" y="-16"/>
      <point x="852" y="45"/>
      <point x="918" y="69" type="curve"/>
      <point x="959" y="392" type="line"/>
      <point x="865" y="392" type="line"/>
      <point x="847" y="320"/>
      <point x="826" y="246"/>
      <point x="805" y="174" type="curve"/>
      <point x="755" y="110"/>
      <point x="638" y="79"/>
      <point x="558" y="79" type="curve"/>
      <point x="333" y="79"/>
      <point x="254" y="364"/>
      <point x="256" y="628" type="curve"/>
      <point x="256" y="968"/>
      <point x="410" y="1408"/>
      <point x="729" y="1408" type="curve"/>
      <point x="837" y="1408"/>
      <point x="886" y="1382"/>
      <point x="921" y="1356" type="curve"/>
      <point x="925" y="1088" type="line"/>
      <point x="1023" y="1088" type="line"/>
      <point x="1082" y="1442" type="line"/>
      <point x="1026" y="1452"/>
      <point x="908" y="1502"/>
      <point x="751" y="1502" type="curve"/>
      <point x="396" y="1502"/>
      <point x="93" y="1148"/>
      <point x="90" y="612" type="curve"/>
      <point x="85" y="310"/>
      <point x="205" y="-16"/>
    </contour>
  </outline>
</glyph>
<glyph name="D" format="1">
  <advance width="1181"/>
  <unicode hex="0044"/>
  <outline>
    <contour>
      <point x="681" y="1484" type="move" name="top"/>
    </contour>
    <contour>
      <point x="480" y="0" type="move" name="bottom"/>
    </contour>
    <contour>
      <point x="512" y="-16" type="curve"/>
      <point x="902" y="-16"/>
      <point x="1157" y="383"/>
      <point x="1168" y="900" type="curve"/>
      <point x="1175" y="1261"/>
      <point x="1039" y="1502"/>
      <point x="683" y="1502" type="curve"/>
      <point x="601" y="1502"/>
      <point x="517" y="1488"/>
      <point x="434" y="1486" type="curve"/>
      <point x="212" y="1486" type="line"/>
      <point x="203" y="1408" type="line"/>
      <point x="310" y="1388" type="line"/>
      <point x="132" y="92" type="line"/>
      <point x="3" y="68" type="line"/>
      <point x="-5" y="0" type="line"/>
      <point x="206" y="0" type="line" smooth="yes"/>
      <point x="299" y="0"/>
      <point x="390" y="-16"/>
    </contour>
    <contour>
      <point x="254" y="114" type="curve"/>
      <point x="277" y="31" type="line"/>
      <point x="475" y="1467" type="line"/>
      <point x="438" y="1387" type="line"/>
      <point x="481" y="1395"/>
      <point x="577" y="1410"/>
      <point x="652" y="1410" type="curve"/>
      <point x="913" y="1410"/>
      <point x="1014" y="1255"/>
      <point x="1007" y="887" type="curve"/>
      <point x="998" y="492"/>
      <point x="834" y="78"/>
      <point x="500" y="78" type="curve"/>
      <point x="431" y="78"/>
      <point x="309" y="91"/>
    </contour>
  </outline>
</glyph>
<glyph name="E" format="1">
  <advance width="1057"/>
  <unicode hex="0045"/>
  <outline>
    <contour>
      <point x="160" y="1486" type="move" name="topleft"/>
    </contour>
    <contour>
      <point x="637" y="1486" type="move" name="top"/>
    </contour>
    <contour>
      <point x="862" y="20" type="move" name="ogonek"/>
    </contour>
    <contour>
      <point x="477" y="0" type="move" name="bottom"/>
    </contour>
    <contour>
      <point x="10" y="68" type="line"/>
      <point x="2" y="0" type="line"/>
      <point x="903" y="0" type="line"/>
      <point x="981" y="309" type="line"/>
      <point x="899" y="335" type="line"/>
      <point x="797" y="110" type="line"/>
      <point x="293" y="93" type="line"/>
      <point x="378" y="716" type="line"/>
      <point x="779" y="703" type="line"/>
      <point x="791" y="826" type="line"/>
      <point x="388" y="820" type="line"/>
      <point x="466" y="1402" type="line"/>
      <point x="875" y="1391" type="line"/>
      <point x="903" y="1183" type="line"/>
      <point x="988" y="1183" type="line"/>
      <point x="1003" y="1486" type="line"/>
      <point x="201" y="1486" type="line"/>
      <point x="191" y="1408" type="line"/>
      <point x="307" y="1388" type="line"/>
      <point x="138" y="90" type="line"/>
    </contour>
  </outline>
</glyph>
<glyph name="F" format="1">
  <advance width="956"/>
  <unicode hex="0046"/>
  <outline>
    <contour>
      <point x="496" y="-164" type="move" name="btm"/>
    </contour>
    <contour>
      <point x="654" y="1486" type="move" name="top"/>
    </contour>
    <contour>
      <point x="5" y="68" type="line"/>
      <point x="-4" y="0" type="line"/>
      <point x="483" y="0" type="line"/>
      <point x="491" y="68" type="line"/>
      <point x="285" y="94" type="line"/>
      <point x="376" y="714" type="line"/>
      <point x="798" y="701" type="line"/>
      <point x="815" y="826" type="line"/>
      <point x="388" y="819" type="line"/>
      <point x="469" y="1400" type="line"/>
      <point x="904" y="1386" type="line"/>
      <point x="916" y="1184" type="line"/>
      <point x="1012" y="1184" type="line"/>
      <point x="1040" y="1486" type="line"/>
      <point x="209" y="1486" type="line"/>
      <point x="197" y="1408" type="line"/>
      <point x="313" y="1388" type="line"/>
      <point x="131" y="92" type="line"/>
    </contour>
  </outline>
</glyph>
<glyph name="H" format="1">
  <advance width="1269"/>
  <unicode hex="0048"/>
  <outline>
    <contour>
      <point x="769" y="1486" type="move" name="top"/>
    </contour>
    <contour>
      <point x="574" y="0" type="move" name="bottom"/>
    </contour>
    <contour>
      <point x="5" y="68" type="line"/>
      <point x="-4" y="0" type="line"/>
      <point x="407" y="0" type="line"/>
      <point x="414" y="68" type="line"/>
      <point x="286" y="92" type="line"/>
      <point x="465" y="1388" type="line"/>
      <point x="590" y="1408" type="line"/>
      <point x="599" y="1486" type="line"/>
      <point x="212" y="1486" type="line"/>
      <point x="203" y="1408" type="line"/>
      <point x="310" y="1388" type="line"/>
      <point x="132" y="92" type="line"/>
    </contour>
    <contour>
      <point x="350" y="809" type="line"/>
      <point x="348" y="707" type="line"/>
      <point x="1006" y="707" type="line"/>
      <point x="1009" y="809" type="line"/>
    </contour>
    <contour>
      <point x="732" y="68" type="line"/>
      <point x="725" y="0" type="line"/>
      <point x="1145" y="0" type="line"/>
      <point x="1152" y="68" type="line"/>
      <point x="1027" y="92" type="line"/>
      <point x="1203" y="1388" type="line"/>
      <point x="1323" y="1408" type="line"/>
      <point x="1333" y="1486" type="line"/>
      <point x="941" y="1486" type="line"/>
      <point x="931" y="1408" type="line"/>
      <point x="1051" y="1388" type="line"/>
      <point x="875" y="92" type="line"/>
    </contour>
  </outline>
</glyph>
<glyph name="I" format="1">
  <advance width="522"/>
  <unicode hex="0049"/>
  <outline>
    <contour>
      <point x="301" y="-164" type="move" name="btm"/>
    </contour>
    <contour>
      <point x="135" y="1486" type="move" name="topleft"/>
    </contour>
    <contour>
      <point x="388" y="1486" type="move" name="top"/>
    </contour>
    <contour>
      <point x="290" y="20" type="move" name="ogonek"/>
    </contour>
    <contour>
      <point x="190" y="0" type="move" name="bottom"/>
    </contour>
    <contour>
      <point x="-4" y="68" type="line"/>
      <point x="-11" y="0" type="line"/>
      <point x="405" y="0" type="line"/>
      <point x="412" y="68" type="line"/>
      <point x="279" y="92" type="line"/>
      <point x="446" y="1388" type="line"/>
      <point x="578" y="1408" type="line"/>
      <point x="586" y="1486" type="line"/>
      <point x="187" y="1486" type="line"/>
      <point x="176" y="1408" type="line"/>
      <point x="292" y="1388" type="line"/>
      <point x="123" y="92" type="line"/>
    </contour>
  </outline>
</glyph>
<glyph name="J" format="1">
  <advance width="529"/>
  <unicode hex="004A"/>
  <outline>
    <contour>
      <point x="198" y="-164" type="move" name="btm"/>
    </contour>
    <contour>
      <point x="406" y="1486" type="move" name="top"/>
    </contour>
    <contour>
      <point x="-187" y="-268" type="curve"/>
      <point x="-161" y="-336" type="line"/>
      <point x="23" y="-302"/>
      <point x="202" y="-192"/>
      <point x="277" y="74" type="curve"/>
      <point x="304" y="166"/>
      <point x="374" y="734"/>
      <point x="450" y="1390" type="curve"/>
      <point x="592" y="1408" type="line"/>
      <point x="602" y="1486" type="line"/>
      <point x="186" y="1486" type="line"/>
      <point x="174" y="1408" type="line"/>
      <point x="300" y="1390" type="line"/>
      <point x="249" y="964"/>
      <point x="191" y="403"/>
      <point x="128" y="88" type="curve"/>
      <point x="97" y="-71"/>
      <point x="-31" y="-222"/>
    </contour>
  </outline>
</glyph>
<glyph name="K" format="1">
  <advance width="1178"/>
  <unicode hex="004B"/>
  <outline>
    <contour>
      <point x="736" y="1486" type="move" name="top"/>
    </contour>
    <contour>
      <point x="581" y="0" type="move" name="bottom"/>
    </contour>
    <contour>
      <point x="346" y="613" type="line"/>
      <point x="325" y="462" type="line"/>
      <point x="1104" y="1390" type="line"/>
      <point x="1205" y="1408" type="line"/>
      <point x="1219" y="1486" type="line"/>
      <point x="860" y="1486" type="line"/>
      <point x="850" y="1407" type="line"/>
      <point x="965" y="1388" type="line"/>
    </contour>
    <contour>
      <point x="5" y="68" type="line"/>
      <point x="-6" y="0" type="line"/>
      <point x="411" y="0" type="line"/>
      <point x="418" y="68" type="line"/>
      <point x="285" y="92" type="line"/>
      <point x="463" y="1388" type="line"/>
      <point x="594" y="1408" type="line"/>
      <point x="605" y="1486" type="line"/>
      <point x="204" y="1486" type="line"/>
      <point x="194" y="1408" type="line"/>
      <point x="310" y="1388" type="line"/>
      <point x="131" y="92" type="line"/>
    </contour>
    <contour>
      <point x="860" y="0" type="curve"/>
      <point x="1079" y="0" type="line"/>
      <point x="1091" y="74" type="line"/>
      <point x="988" y="107" type="line"/>
      <point x="952" y="131"/>
      <point x="916" y="213"/>
      <point x="820" y="408" type="curve"/>
      <point x="765" y="514"/>
      <point x="676" y="707"/>
      <point x="622" y="816" type="curve"/>
      <point x="521" y="716" type="line"/>
      <point x="568" y="621"/>
      <point x="635" y="465"/>
      <point x="686" y="357" type="curve"/>
      <point x="752" y="219"/>
      <point x="819" y="4"/>
    </contour>
  </outline>
</glyph>
<glyph name="L" format="1">
  <advance width="980"/>
  <unicode hex="004C"/>
  <outline>
    <contour>
      <point x="739" y="1110" type="move" name="car"/>
    </contour>
    <contour>
      <point x="407" y="1486" type="move" name="top"/>
    </contour>
    <contour>
      <point x="460" y="0" type="move" name="bottom"/>
    </contour>
    <contour>
      <point x="6" y="68" type="line"/>
      <point x="-2" y="0" type="line"/>
      <point x="841" y="0" type="line"/>
      <point x="935" y="420" type="line"/>
      <point x="848" y="438" type="line"/>
      <point x="719" y="99" type="line"/>
      <point x="285" y="92" type="line"/>
      <point x="464" y="1388" type="line"/>
      <point x="615" y="1408" type="line"/>
      <point x="622" y="1486" type="line"/>
      <point x="204" y="1486" type="line"/>
      <point x="194" y="1408" type="line"/>
      <point x="310" y="1388" type="line"/>
      <point x="131" y="92" type="line"/>
    </contour>
  </outline>
</glyph>
<glyph name="M" format="1">
  <advance width="1627"/>
  <unicode hex="004D"/>
  <outline>
    <contour>
      <point x="944" y="1486" type="move" name="top"/>
    </contour>
    <contour>
      <point x="737" y="0" type="move" name="bottom"/>
    </contour>
    <contour>
      <point x="-29" y="68" type="line"/>
      <point x="-37" y="0" type="line"/>
      <point x="398" y="0" type="line"/>
      <point x="406" y="68" type="line"/>
      <point x="238" y="92" type="line"/>
      <point x="437" y="1010" type="line"/>
      <point x="517" y="1404" type="line"/>
      <point x="564" y="1018" type="line"/>
      <point x="691" y="0" type="line"/>
      <point x="779" y="0" type="line"/>
      <point x="1204" y="1042" type="line"/>
      <point x="1343" y="1406" type="line"/>
      <point x="1310" y="994" type="line"/>
      <point x="1262" y="90" type="line"/>
      <point x="1104" y="68" type="line"/>
      <point x="1095" y="0" type="line"/>
      <point x="1552" y="0" type="line"/>
      <point x="1559" y="68" type="line"/>
      <point x="1415" y="92" type="line"/>
      <point x="1468" y="1388" type="line"/>
      <point x="1622" y="1408" type="line"/>
      <point x="1631" y="1486" type="line"/>
      <point x="1282" y="1486" type="line"/>
      <point x="877" y="449" type="line"/>
      <point x="792" y="223" type="line"/>
      <point x="770" y="454" type="line"/>
      <point x="647" y="1486" type="line"/>
      <point x="273" y="1486" type="line"/>
      <point x="262" y="1408" type="line"/>
      <point x="420" y="1388" type="line"/>
      <point x="115" y="92" type="line"/>
    </contour>
  </outline>
</glyph>
<glyph name="N" format="1">
  <advance width="1241"/>
  <unicode hex="004E"/>
  <outline>
    <contour>
      <point x="771" y="1486" type="move" name="top"/>
    </contour>
    <contour>
      <point x="602" y="0" type="move" name="bottom"/>
    </contour>
    <contour>
      <point x="16" y="68" type="line"/>
      <point x="9" y="0" type="line"/>
      <point x="393" y="0" type="line"/>
      <point x="400" y="68" type="line"/>
      <point x="254" y="92" type="line"/>
      <point x="411" y="1402" type="line"/>
      <point x="382" y="1399" type="line"/>
      <point x="465" y="1110" type="line"/>
      <point x="855" y="0" type="line"/>
      <point x="1009" y="0" type="line"/>
      <point x="1204" y="1388" type="line"/>
      <point x="1335" y="1408" type="line"/>
      <point x="1342" y="1486" type="line"/>
      <point x="968" y="1486" type="line"/>
      <point x="957" y="1408" type="line"/>
      <point x="1091" y="1390" type="line"/>
      <point x="929" y="76" type="line"/>
      <point x="959" y="78" type="line"/>
      <point x="877" y="368" type="line"/>
      <point x="485" y="1486" type="line"/>
      <point x="202" y="1486" type="line"/>
      <point x="190" y="1408" type="line"/>
      <point x="312" y="1388" type="line"/>
      <point x="135" y="90" type="line"/>
    </contour>
  </outline>
</glyph>
<glyph name="O" format="1">
  <advance width="1159"/>
  <unicode hex="004F"/>
  <outline>
    <contour>
      <point x="179" y="1486" type="move" name="topleft"/>
    </contour>
    <contour>
      <point x="630" y="744" type="move" name="center"/>
    </contour>
    <contour>
      <point x="522" y="0" type="move" name="bottom"/>
    </contour>
    <contour>
      <point x="729" y="1486" type="move" name="top"/>
    </contour>
    <contour>
      <point x="1028" y="1486" type="move" name="topright"/>
    </contour>
    <contour>
      <point x="685" y="20" type="move" name="ogonek"/>
    </contour>
    <contour>
      <point x="520" y="-20" type="curve"/>
      <point x="880" y="-20"/>
      <point x="1131" y="371"/>
      <point x="1135" y="886" type="curve"/>
      <point x="1137" y="1224"/>
      <point x="1009" y="1506"/>
      <point x="716" y="1506" type="curve"/>
      <point x="363" y="1506"/>
      <point x="104" y="1124"/>
      <point x="99" y="604" type="curve"/>
      <point x="96" y="256"/>
      <point x="233" y="-20"/>
    </contour>
    <contour>
      <point x="542" y="75" type="curve"/>
      <point x="352" y="75"/>
      <point x="255" y="294"/>
      <point x="259" y="626" type="curve"/>
      <point x="264" y="1084"/>
      <point x="451" y="1408"/>
      <point x="693" y="1408" type="curve"/>
      <point x="884" y="1408"/>
      <point x="973" y="1184"/>
      <point x="971" y="862" type="curve"/>
      <point x="967" y="406"/>
      <point x="785" y="75"/>
    </contour>
  </outline>
</glyph>
<glyph name="P" format="1">
  <advance width="1068"/>
  <unicode hex="0050"/>
  <outline>
    <contour>
      <point x="662" y="1486" type="move" name="top"/>
    </contour>
    <contour>
      <point x="11" y="68" type="line"/>
      <point x="3" y="0" type="line"/>
      <point x="451" y="0" type="line"/>
      <point x="458" y="68" type="line"/>
      <point x="288" y="92" type="line"/>
      <point x="475" y="1462" type="line"/>
      <point x="422" y="1384" type="line"/>
      <point x="479" y="1395"/>
      <point x="574" y="1408"/>
      <point x="636" y="1410" type="curve"/>
      <point x="829" y="1416"/>
      <point x="899" y="1306"/>
      <point x="893" y="1111" type="curve"/>
      <point x="883" y="795"/>
      <point x="761" y="628"/>
      <point x="518" y="626" type="curve"/>
      <point x="476" y="626"/>
      <point x="376" y="633"/>
      <point x="318" y="647" type="curve"/>
      <point x="311" y="537" type="line"/>
      <point x="344" y="534"/>
      <point x="456" y="532"/>
      <point x="511" y="532" type="curve"/>
      <point x="809" y="532"/>
      <point x="1054" y="739"/>
      <point x="1056" y="1123" type="curve"/>
      <point x="1058" y="1381"/>
      <point x="925" y="1502"/>
      <point x="664" y="1502" type="curve"/>
      <point x="575" y="1502"/>
      <point x="499" y="1486"/>
      <point x="404" y="1486" type="curve"/>
      <point x="201" y="1486" type="line"/>
      <point x="192" y="1408" type="line"/>
      <point x="310" y="1388" type="line"/>
      <point x="132" y="92" type="line"/>
    </contour>
  </outline>
</glyph>
<glyph name="Q" format="1">
  <advance width="1156"/>
  <unicode hex="0051"/>
  <outline>
    <contour>
      <point x="773" y="-351" type="curve"/>
      <point x="879" y="-351"/>
      <point x="981" y="-306"/>
      <point x="1024" y="-268" type="curve"/>
      <point x="1024" y="-162" type="line"/>
      <point x="971" y="-190"/>
      <point x="883" y="-212"/>
      <point x="826" y="-212" type="curve"/>
      <point x="696" y="-212"/>
      <point x="577" y="-182"/>
      <point x="580" y="-14" type="curve"/>
      <point x="487" y="-18" type="line"/>
      <point x="447" y="-242"/>
      <point x="592" y="-351"/>
    </contour>
    <contour>
      <point x="510" y="-20" type="curve"/>
      <point x="870" y="-20"/>
      <point x="1121" y="371"/>
      <point x="1125" y="886" type="curve"/>
      <point x="1127" y="1224"/>
      <point x="999" y="1506"/>
      <point x="706" y="1506" type="curve"/>
      <point x="353" y="1506"/>
      <point x="94" y="1124"/>
      <point x="89" y="604" type="curve"/>
      <point x="86" y="256"/>
      <point x="223" y="-20"/>
    </contour>
    <contour>
      <point x="532" y="75" type="curve"/>
      <point x="342" y="75"/>
      <point x="245" y="294"/>
      <point x="249" y="626" type="curve"/>
      <point x="254" y="1084"/>
      <point x="441" y="1408"/>
      <point x="683" y="1408" type="curve"/>
      <point x="874" y="1408"/>
      <point x="963" y="1184"/>
      <point x="961" y="862" type="curve"/>
      <point x="957" y="406"/>
      <point x="775" y="75"/>
    </contour>
  </outline>
</glyph>
<glyph name="R" format="1">
  <advance width="1128"/>
  <unicode hex="0052"/>
  <outline>
    <contour>
      <point x="691" y="1486" type="move" name="top"/>
    </contour>
    <contour>
      <point x="497" y="0" type="move" name="bottom"/>
    </contour>
    <contour>
      <point x="23" y="68" type="line"/>
      <point x="16" y="0" type="line"/>
      <point x="440" y="0" type="line"/>
      <point x="447" y="68" type="line"/>
      <point x="288" y="92" type="line"/>
      <point x="466" y="1467" type="line"/>
      <point x="430" y="1388" type="line"/>
      <point x="453" y="1396"/>
      <point x="583" y="1410"/>
      <point x="616" y="1410" type="curve"/>
      <point x="824" y="1410"/>
      <point x="894" y="1325"/>
      <point x="894" y="1156" type="curve"/>
      <point x="893" y="936"/>
      <point x="769" y="760"/>
      <point x="574" y="746" type="curve"/>
      <point x="553" y="745"/>
      <point x="401" y="745"/>
      <point x="347" y="746" type="curve"/>
      <point x="332" y="656" type="line"/>
      <point x="387" y="656"/>
      <point x="538" y="657"/>
      <point x="548" y="657" type="curve"/>
      <point x="620" y="657"/>
      <point x="695" y="433"/>
      <point x="757" y="247" type="curve"/>
      <point x="816" y="45"/>
      <point x="850" y="0"/>
      <point x="879" y="0" type="curve"/>
      <point x="1046" y="0" type="line"/>
      <point x="1056" y="79" type="line"/>
      <point x="969" y="79"/>
      <point x="960" y="103"/>
      <point x="881" y="330" type="curve"/>
      <point x="844" y="423"/>
      <point x="761" y="685"/>
      <point x="676" y="676" type="curve"/>
      <point x="652" y="659" type="line"/>
      <point x="887" y="707"/>
      <point x="1048" y="910"/>
      <point x="1050" y="1170" type="curve"/>
      <point x="1052" y="1400"/>
      <point x="935" y="1502"/>
      <point x="646" y="1502" type="curve"/>
      <point x="562" y="1502"/>
      <point x="490" y="1486"/>
      <point x="413" y="1486" type="curve"/>
      <point x="201" y="1486" type="line"/>
      <point x="192" y="1408" type="line"/>
      <point x="307" y="1388" type="line"/>
      <point x="138" y="92" type="line"/>
    </contour>
  </outline>
</glyph>
<glyph name="S" format="1">
  <advance width="885"/>
  <unicode hex="0053"/>
  <outline>
    <contour>
      <point x="581" y="1486" type="move" name="top"/>
    </contour>
    <contour>
      <point x="369" y="0" type="move" name="bottom"/>
    </contour>
    <contour>
      <point x="350" y="-22" type="curve"/>
      <point x="612" y="-22"/>
      <point x="805" y="145"/>
      <point x="809" y="415" type="curve"/>
      <point x="812" y="620"/>
      <point x="671" y="718"/>
      <point x="544" y="813" type="curve"/>
      <point x="423" y="899"/>
      <point x="303" y="984"/>
      <point x="308" y="1161" type="curve"/>
      <point x="313" y="1329"/>
      <point x="444" y="1410"/>
      <point x="567" y="1410" type="curve"/>
      <point x="656" y="1410"/>
      <point x="722" y="1387"/>
      <point x="758" y="1357" type="curve"/>
      <point x="761" y="1168" type="line"/>
      <point x="847" y="1168" type="line"/>
      <point x="895" y="1421" type="line"/>
      <point x="848" y="1457"/>
      <point x="747" y="1502"/>
      <point x="582" y="1502" type="curve"/>
      <point x="358" y="1502"/>
      <point x="164" y="1348"/>
      <point x="161" y="1114" type="curve"/>
      <point x="158" y="894"/>
      <point x="311" y="779"/>
      <point x="442" y="686" type="curve"/>
      <point x="559" y="606"/>
      <point x="663" y="515"/>
      <point x="653" y="343" type="curve"/>
      <point x="643" y="152"/>
      <point x="495" y="70"/>
      <point x="356" y="70" type="curve"/>
      <point x="274" y="70"/>
      <point x="187" y="94"/>
      <point x="140" y="132" type="curve"/>
      <point x="138" y="335" type="line"/>
      <point x="47" y="335" type="line"/>
      <point x="0" y="63" type="line"/>
      <point x="41" y="27"/>
      <point x="191" y="-22"/>
    </contour>
  </outline>
</glyph>
<glyph name="T" format="1">
  <advance width="1124"/>
  <unicode hex="0054"/>
  <outline>
    <contour>
      <point x="682" y="1486" type="move" name="top"/>
    </contour>
    <contour>
      <point x="484" y="0" type="move" name="bottom"/>
    </contour>
    <contour>
      <point x="209" y="74" type="line"/>
      <point x="203" y="0" type="line"/>
      <point x="775" y="0" type="line"/>
      <point x="782" y="74" type="line"/>
      <point x="571" y="92" type="line"/>
      <point x="745" y="1402" type="line"/>
      <point x="1036" y="1386" type="line"/>
      <point x="1031" y="1047" type="line"/>
      <point x="1115" y="1049" type="line"/>
      <point x="1166" y="1486" type="line"/>
      <point x="189" y="1486" type="line"/>
      <point x="117" y="1049" type="line"/>
      <point x="205" y="1051" type="line"/>
      <point x="293" y="1386" type="line"/>
      <point x="590" y="1402" type="line"/>
      <point x="417" y="92" type="line"/>
    </contour>
  </outline>
</glyph>
<glyph name="U" format="1">
  <advance width="1181"/>
  <unicode hex="0055"/>
  <outline>
    <contour>
      <point x="728" y="1486" type="move" name="top"/>
    </contour>
    <contour>
      <point x="691" y="20" type="move" name="ogonek"/>
    </contour>
    <contour>
      <point x="1289" y="1486" type="move" name="topright"/>
    </contour>
    <contour>
      <point x="535" y="0" type="move" name="bottom"/>
    </contour>
    <contour>
      <point x="523" y="-20" type="curve"/>
      <point x="816" y="-20"/>
      <point x="991" y="152"/>
      <point x="1051" y="612" type="curve"/>
      <point x="1151" y="1390" type="line"/>
      <point x="1260" y="1407" type="line"/>
      <point x="1269" y="1486" type="line"/>
      <point x="926" y="1486" type="line"/>
      <point x="917" y="1407" type="line"/>
      <point x="1032" y="1388" type="line"/>
      <point x="930" y="612" type="line" smooth="yes"/>
      <point x="883" y="244"/>
      <point x="764" y="68"/>
      <point x="550" y="68" type="curve"/>
      <point x="376" y="68"/>
      <point x="303" y="198"/>
      <point x="302" y="408" type="curve"/>
      <point x="301" y="464"/>
      <point x="306" y="522"/>
      <point x="315" y="592" type="curve"/>
      <point x="418" y="1388" type="line"/>
      <point x="555" y="1407" type="line"/>
      <point x="565" y="1486" type="line"/>
      <point x="156" y="1486" type="line"/>
      <point x="147" y="1408" type="line"/>
      <point x="261" y="1390" type="line"/>
      <point x="157" y="580" type="line" smooth="yes"/>
      <point x="150" y="522"/>
      <point x="147" y="466"/>
      <point x="147" y="416" type="curve"/>
      <point x="149" y="147"/>
      <point x="268" y="-20"/>
    </contour>
  </outline>
</glyph>
<glyph name="V" format="1">
  <advance width="1027"/>
  <unicode hex="0056"/>
  <outline>
    <contour>
      <point x="726" y="1660" type="move" name="top"/>
    </contour>
    <contour>
      <point x="187" y="1388" type="line"/>
      <point x="368" y="-20" type="line"/>
      <point x="503" y="-10" type="line"/>
      <point x="1088" y="1390" type="line"/>
      <point x="1182" y="1408" type="line"/>
      <point x="1191" y="1486" type="line"/>
      <point x="843" y="1486" type="line"/>
      <point x="834" y="1408" type="line"/>
      <point x="969" y="1388" type="line"/>
      <point x="585" y="439" type="line"/>
      <point x="452" y="65" type="line"/>
      <point x="486" y="62" type="line"/>
      <point x="456" y="439" type="line"/>
      <point x="348" y="1388" type="line"/>
      <point x="512" y="1408" type="line"/>
      <point x="521" y="1486" type="line"/>
      <point x="93" y="1486" type="line"/>
      <point x="84" y="1407" type="line"/>
    </contour>
  </outline>
</glyph>
<glyph name="W" format="1">
  <advance width="1562"/>
  <unicode hex="0057"/>
  <outline>
    <contour>
      <point x="927" y="1486" type="move" name="top"/>
    </contour>
    <contour>
      <point x="713" y="0" type="move" name="bottom"/>
    </contour>
    <contour>
      <point x="807" y="1390" type="line"/>
      <point x="918" y="-10" type="line"/>
      <point x="1071" y="-10" type="line"/>
      <point x="1613" y="1388" type="line"/>
      <point x="1731" y="1407" type="line"/>
      <point x="1743" y="1486" type="line"/>
      <point x="1372" y="1486" type="line"/>
      <point x="1364" y="1408" type="line"/>
      <point x="1495" y="1388" type="line"/>
      <point x="1133" y="389" type="line"/>
      <point x="1016" y="68" type="line"/>
      <point x="1048" y="64" type="line"/>
      <point x="1027" y="424" type="line"/>
      <point x="955" y="1390" type="line"/>
      <point x="1107" y="1408" type="line"/>
      <point x="1122" y="1486" type="line"/>
      <point x="695" y="1486" type="line"/>
      <point x="686" y="1407" type="line"/>
    </contour>
    <contour>
      <point x="181" y="1388" type="line"/>
      <point x="323" y="-10" type="line"/>
      <point x="472" y="-10" type="line"/>
      <point x="842" y="1038" type="line"/>
      <point x="820" y="1251" type="line"/>
      <point x="517" y="367" type="line"/>
      <point x="417" y="67" type="line"/>
      <point x="450" y="64" type="line"/>
      <point x="416" y="424" type="line"/>
      <point x="334" y="1392" type="line"/>
      <point x="480" y="1408" type="line"/>
      <point x="487" y="1486" type="line"/>
      <point x="84" y="1486" type="line"/>
      <point x="75" y="1407" type="line"/>
    </contour>
  </outline>
</glyph>
<glyph name="X" format="1">
  <advance width="1091"/>
  <unicode hex="0058"/>
  <outline>
    <contour>
      <point x="712" y="1660" type="move" name="top"/>
    </contour>
    <contour>
      <point x="480" y="0" type="move" name="bottom"/>
    </contour>
    <contour>
      <point x="-51" y="68" type="line"/>
      <point x="-59" y="0" type="line"/>
      <point x="327" y="0" type="line"/>
      <point x="336" y="68" type="line"/>
      <point x="200" y="92" type="line"/>
      <point x="535" y="656" type="line"/>
      <point x="642" y="758" type="line"/>
      <point x="1075" y="1390" type="line"/>
      <point x="1197" y="1408" type="line"/>
      <point x="1204" y="1486" type="line"/>
      <point x="805" y="1486" type="line"/>
      <point x="797" y="1408" type="line"/>
      <point x="937" y="1388" type="line"/>
      <point x="598" y="842" type="line"/>
      <point x="492" y="752" type="line"/>
      <point x="58" y="90" type="line"/>
    </contour>
    <contour>
      <point x="580" y="68" type="line"/>
      <point x="574" y="0" type="line"/>
      <point x="1025" y="0" type="line"/>
      <point x="1030" y="68" type="line"/>
      <point x="905" y="92" type="line"/>
      <point x="643" y="758" type="line"/>
      <point x="598" y="842" type="line"/>
      <point x="420" y="1390" type="line"/>
      <point x="564" y="1407" type="line"/>
      <point x="573" y="1486" type="line"/>
      <point x="137" y="1486" type="line"/>
      <point x="129" y="1408" type="line"/>
      <point x="247" y="1386" type="line"/>
      <point x="492" y="752" type="line"/>
      <point x="535" y="656" type="line"/>
      <point x="722" y="90" type="line"/>
    </contour>
  </outline>
</glyph>
<glyph name="Y" format="1">
  <advance width="976"/>
  <unicode hex="0059"/>
  <outline>
    <contour>
      <point x="407" y="-166" type="move" name="btm"/>
    </contour>
    <contour>
      <point x="140" y="1486" type="move" name="topleft"/>
    </contour>
    <contour>
      <point x="627" y="1486" type="move" name="top"/>
    </contour>
    <contour>
      <point x="402" y="0" type="move" name="bottom"/>
    </contour>
    <contour>
      <point x="167" y="68" type="line"/>
      <point x="159" y="0" type="line"/>
      <point x="694" y="0" type="line"/>
      <point x="703" y="68" type="line"/>
      <point x="513" y="92" type="line"/>
      <point x="587" y="641" type="line"/>
      <point x="537" y="513" type="line"/>
      <point x="1040" y="1390" type="line"/>
      <point x="1137" y="1408" type="line"/>
      <point x="1146" y="1486" type="line"/>
      <point x="791" y="1486" type="line"/>
      <point x="780" y="1408" type="line"/>
      <point x="914" y="1388" type="line"/>
      <point x="602" y="800" type="line"/>
      <point x="499" y="612" type="line"/>
      <point x="553" y="605" type="line"/>
      <point x="503" y="802" type="line"/>
      <point x="338" y="1388" type="line"/>
      <point x="480" y="1408" type="line"/>
      <point x="491" y="1486" type="line"/>
      <point x="85" y="1486" type="line"/>
      <point x="73" y="1408" type="line"/>
      <point x="172" y="1388" type="line"/>
      <point x="452" y="506" type="line"/>
      <point x="437" y="641" type="line"/>
      <point x="365" y="92" type="line"/>
    </contour>
  </outline>
</glyph>
<glyph name="Z" format="1">
  <advance width="1028"/>
  <unicode hex="005A"/>
  <outline>
    <contour>
      <point x="619" y="1486" type="move" name="top"/>
    </contour>
    <contour>
      <point x="447" y="0" type="move" name="bottom"/>
    </contour>
    <contour>
      <point x="-24" y="72" type="line"/>
      <point x="-7" y="0" type="line"/>
      <point x="861" y="0" type="line"/>
      <point x="947" y="345" type="line"/>
      <point x="859" y="370" type="line"/>
      <point x="743" y="104" type="line"/>
      <point x="158" y="84" type="line"/>
      <point x="282" y="268" type="line"/>
      <point x="1051" y="1416" type="line"/>
      <point x="1036" y="1486" type="line"/>
      <point x="230" y="1486" type="line"/>
      <point x="173" y="1150" type="line"/>
      <point x="261" y="1132" type="line"/>
      <point x="346" y="1389" type="line"/>
      <point x="877" y="1396" type="line"/>
      <point x="729" y="1189" type="line"/>
    </contour>
  </outline>
</glyph>
<glyph name="AE" format="1">
  <advance width="1621"/>
  <unicode hex="00C6"/>
  <outline>
    <contour>
      <point x="1047" y="1486" type="move" name="top"/>
    </contour>
    <contour>
      <point x="-106" y="68" type="line"/>
      <point x="-117" y="0" type="line"/>
      <point x="362" y="0" type="line"/>
      <point x="369" y="68" type="line"/>
      <point x="183" y="92" type="line"/>
      <point x="357" y="487" type="line"/>
      <point x="781" y="487" type="line"/>
      <point x="732" y="90" type="line"/>
      <point x="617" y="68" type="line"/>
      <point x="608" y="0" type="line"/>
      <point x="1478" y="0" type="line"/>
      <point x="1545" y="293" type="line"/>
      <point x="1460" y="316" type="line"/>
      <point x="1371" y="110" type="line"/>
      <point x="889" y="92" type="line"/>
      <point x="968" y="716" type="line"/>
      <point x="1342" y="704" type="line"/>
      <point x="1357" y="834" type="line"/>
      <point x="978" y="814" type="line"/>
      <point x="1056" y="1400" type="line"/>
      <point x="1443" y="1389" type="line"/>
      <point x="1467" y="1200" type="line"/>
      <point x="1555" y="1200" type="line"/>
      <point x="1571" y="1486" type="line"/>
      <point x="417" y="1486" type="line"/>
      <point x="406" y="1408" type="line"/>
      <point x="666" y="1389" type="line"/>
      <point x="34" y="90" type="line"/>
    </contour>
    <contour>
      <point x="793" y="584" type="line"/>
      <point x="405" y="584" type="line"/>
      <point x="779" y="1388" type="line"/>
      <point x="894" y="1382" type="line"/>
    </contour>
  </outline>
</glyph>
<glyph name="Eth" format="1">
  <advance width="1163"/>
  <unicode hex="00D0"/>
  <outline>
    <contour>
      <point x="110" y="816" type="line"/>
      <point x="95" y="714" type="line"/>
      <point x="725" y="714" type="line"/>
      <point x="740" y="816" type="line"/>
    </contour>
    <contour>
      <point x="522" y="-16" type="curve"/>
      <point x="912" y="-16"/>
      <point x="1167" y="383"/>
      <point x="1179" y="900" type="curve"/>
      <point x="1186" y="1261"/>
      <point x="1049" y="1502"/>
      <point x="694" y="1502" type="curve"/>
      <point x="612" y="1502"/>
      <point x="527" y="1488"/>
      <point x="445" y="1486" type="curve"/>
      <point x="223" y="1486" type="line"/>
      <point x="214" y="1408" type="line"/>
      <point x="321" y="1388" type="line"/>
      <point x="143" y="92" type="line"/>
      <point x="14" y="68" type="line"/>
      <point x="5" y="0" type="line"/>
      <point x="216" y="0" type="line" smooth="yes"/>
      <point x="310" y="0"/>
      <point x="401" y="-16"/>
    </contour>
    <contour>
      <point x="265" y="114" type="curve"/>
      <point x="288" y="31" type="line"/>
      <point x="486" y="1467" type="line"/>
      <point x="449" y="1387" type="line"/>
      <point x="491" y="1395"/>
      <point x="587" y="1410"/>
      <point x="662" y="1410" type="curve"/>
      <point x="924" y="1410"/>
      <point x="1025" y="1255"/>
      <point x="1017" y="887" type="curve"/>
      <point x="1009" y="492"/>
      <point x="845" y="78"/>
      <point x="511" y="78" type="curve"/>
      <point x="442" y="78"/>
      <point x="320" y="91"/>
    </contour>
  </outline>
</glyph>
<glyph name="Oslash" format="1">
  <advance width="1145"/>
  <unicode hex="00D8"/>
  <outline>
    <contour>
      <point x="704" y="1486" type="move" name="top"/>
    </contour>
    <contour>
      <point x="67" y="-93" type="line"/>
      <point x="150" y="-145" type="line"/>
      <point x="1112" y="1603" type="line"/>
      <point x="1030" y="1653" type="line"/>
    </contour>
    <contour>
      <point x="510" y="-20" type="curve"/>
      <point x="870" y="-20"/>
      <point x="1121" y="371"/>
      <point x="1125" y="886" type="curve"/>
      <point x="1127" y="1224"/>
      <point x="999" y="1506"/>
      <point x="706" y="1506" type="curve"/>
      <point x="353" y="1506"/>
      <point x="94" y="1124"/>
      <point x="89" y="604" type="curve"/>
      <point x="86" y="256"/>
      <point x="223" y="-20"/>
    </contour>
    <contour>
      <point x="532" y="75" type="curve"/>
      <point x="342" y="75"/>
      <point x="245" y="294"/>
      <point x="249" y="626" type="curve"/>
      <point x="254" y="1084"/>
      <point x="441" y="1408"/>
      <point x="683" y="1408" type="curve"/>
      <point x="874" y="1408"/>
      <point x="963" y="1184"/>
      <point x="961" y="862" type="curve"/>
      <point x="957" y="406"/>
      <point x="775" y="75"/>
    </contour>
  </outline>
</glyph>
<glyph name="Thorn" format="1">
  <advance width="1057"/>
  <unicode hex="00DE"/>
  <outline>
    <contour>
      <point x="5" y="68" type="line"/>
      <point x="-4" y="0" type="line"/>
      <point x="412" y="0" type="line"/>
      <point x="419" y="68" type="line"/>
      <point x="285" y="92" type="line"/>
      <point x="318" y="315" type="line"/>
      <point x="347" y="310"/>
      <point x="408" y="306"/>
      <point x="500" y="306" type="curve"/>
      <point x="811" y="306"/>
      <point x="1017" y="500"/>
      <point x="1024" y="809" type="curve"/>
      <point x="1029" y="1048"/>
      <point x="904" y="1184"/>
      <point x="638" y="1184" type="curve"/>
      <point x="574" y="1184"/>
      <point x="496" y="1178"/>
      <point x="434" y="1166" type="curve"/>
      <point x="465" y="1388" type="line"/>
      <point x="595" y="1408" type="line"/>
      <point x="604" y="1486" type="line"/>
      <point x="212" y="1486" type="line"/>
      <point x="203" y="1408" type="line"/>
      <point x="310" y="1388" type="line"/>
      <point x="132" y="92" type="line"/>
    </contour>
    <contour>
      <point x="331" y="409" type="curve"/>
      <point x="419" y="1072" type="line"/>
      <point x="462" y="1082"/>
      <point x="545" y="1090"/>
      <point x="593" y="1090" type="curve"/>
      <point x="802" y="1090"/>
      <point x="867" y="982"/>
      <point x="866" y="777" type="curve"/>
      <point x="863" y="556"/>
      <point x="728" y="396"/>
      <point x="504" y="396" type="curve"/>
      <point x="438" y="396"/>
      <point x="379" y="400"/>
    </contour>
  </outline>
</glyph>
<glyph name="Lslash" format="1">
  <advance width="968"/>
  <unicode hex="0141"/>
  <outline>
    <contour>
      <point x="50" y="752" type="line"/>
      <point x="76" y="655" type="line"/>
      <point x="809" y="1005" type="line"/>
      <point x="779" y="1108" type="line"/>
    </contour>
    <contour>
      <point x="23" y="68" type="line"/>
      <point x="16" y="0" type="line"/>
      <point x="858" y="0" type="line"/>
      <point x="952" y="420" type="line"/>
      <point x="865" y="438" type="line"/>
      <point x="737" y="99" type="line"/>
      <point x="302" y="92" type="line"/>
      <point x="481" y="1388" type="line"/>
      <point x="632" y="1408" type="line"/>
      <point x="640" y="1486" type="line"/>
      <point x="222" y="1486" type="line"/>
      <point x="211" y="1408" type="line"/>
      <point x="327" y="1388" type="line"/>
      <point x="149" y="92" type="line"/>
    </contour>
  </outline>
</glyph>
<glyph name="Eng" format="1">
  <advance width="1203"/>
  <unicode hex="014A"/>
  <outline>
    <contour>
      <point x="546" y="-288" type="curve"/>
      <point x="570" y="-357" type="line"/>
      <point x="774" y="-342"/>
      <point x="950" y="-180"/>
      <point x="985" y="47" type="curve"/>
      <point x="1175" y="1388" type="line"/>
      <point x="1306" y="1408" type="line"/>
      <point x="1313" y="1486" type="line"/>
      <point x="939" y="1486" type="line"/>
      <point x="928" y="1408" type="line"/>
      <point x="1062" y="1390" type="line"/>
      <point x="908" y="173" type="line"/>
      <point x="849" y="367" type="line"/>
      <point x="456" y="1486" type="line"/>
      <point x="173" y="1486" type="line"/>
      <point x="161" y="1408" type="line"/>
      <point x="283" y="1388" type="line"/>
      <point x="109" y="90" type="line"/>
      <point x="-10" y="68" type="line"/>
      <point x="-17" y="0" type="line"/>
      <point x="367" y="0" type="line"/>
      <point x="374" y="68" type="line"/>
      <point x="228" y="92" type="line"/>
      <point x="373" y="1333" type="line"/>
      <point x="437" y="1103" type="line"/>
      <point x="836" y="0" type="line"/>
      <point x="796" y="-183"/>
      <point x="682" y="-245"/>
    </contour>
  </outline>
</glyph>
<glyph name="OE" format="1">
  <advance width="1826"/>
  <unicode hex="0152"/>
  <outline>
    <contour>
      <point x="522" y="-20" type="curve"/>
      <point x="707" y="-20"/>
      <point x="863" y="106"/>
      <point x="969" y="305" type="curve"/>
      <point x="934" y="0" type="line"/>
      <point x="1682" y="0" type="line"/>
      <point x="1748" y="293" type="line"/>
      <point x="1663" y="316" type="line"/>
      <point x="1577" y="110" type="line"/>
      <point x="1093" y="92" type="line"/>
      <point x="1173" y="716" type="line"/>
      <point x="1546" y="704" type="line"/>
      <point x="1561" y="834" type="line"/>
      <point x="1183" y="815" type="line"/>
      <point x="1261" y="1402" type="line"/>
      <point x="1648" y="1389" type="line"/>
      <point x="1674" y="1200" type="line"/>
      <point x="1761" y="1200" type="line"/>
      <point x="1776" y="1486" type="line"/>
      <point x="1121" y="1486" type="line"/>
      <point x="1080" y="1143" type="line"/>
      <point x="1029" y="1356"/>
      <point x="908" y="1504"/>
      <point x="715" y="1504" type="curve"/>
      <point x="363" y="1504"/>
      <point x="93" y="1128"/>
      <point x="90" y="606" type="curve"/>
      <point x="85" y="215"/>
      <point x="248" y="-20"/>
    </contour>
    <contour>
      <point x="543" y="75" type="curve"/>
      <point x="330" y="76"/>
      <point x="246" y="303"/>
      <point x="250" y="676" type="curve"/>
      <point x="255" y="1091"/>
      <point x="449" y="1406"/>
      <point x="692" y="1406" type="curve"/>
      <point x="886" y="1406"/>
      <point x="978" y="1222"/>
      <point x="975" y="852" type="curve"/>
      <point x="969" y="406"/>
      <point x="788" y="75"/>
    </contour>
  </outline>
</glyph>
<glyph name="Ohorn" format="1">
  <advance width="1193"/>
  <unicode hex="01A0"/>
  <outline>
    <contour>
      <point x="860" y="1414" type="curve"/>
      <point x="982" y="1308" type="line"/>
      <point x="1178" y="1323"/>
      <point x="1293" y="1491"/>
      <point x="1298" y="1686" type="curve"/>
      <point x="1298" y="1700"/>
      <point x="1296" y="1714"/>
      <point x="1294" y="1730" type="curve"/>
      <point x="1167" y="1730" type="line"/>
      <point x="1168" y="1722"/>
      <point x="1169" y="1710"/>
      <point x="1168" y="1696" type="curve"/>
      <point x="1166" y="1587"/>
      <point x="1097" y="1390"/>
    </contour>
    <contour>
      <point x="510" y="-20" type="curve"/>
      <point x="870" y="-20"/>
      <point x="1121" y="371"/>
      <point x="1125" y="886" type="curve"/>
      <point x="1127" y="1224"/>
      <point x="999" y="1506"/>
      <point x="706" y="1506" type="curve"/>
      <point x="353" y="1506"/>
      <point x="94" y="1124"/>
      <point x="89" y="604" type="curve"/>
      <point x="86" y="256"/>
      <point x="223" y="-20"/>
    </contour>
    <contour>
      <point x="532" y="75" type="curve"/>
      <point x="342" y="75"/>
      <point x="245" y="294"/>
      <point x="249" y="626" type="curve"/>
      <point x="254" y="1084"/>
      <point x="441" y="1408"/>
      <point x="683" y="1408" type="curve"/>
      <point x="874" y="1408"/>
      <point x="963" y="1184"/>
      <point x="961" y="862" type="curve"/>
      <point x="957" y="406"/>
      <point x="775" y="75"/>
    </contour>
  </outline>
</glyph>
<glyph name="Uhorn" format="1">
  <advance width="1245"/>
  <unicode hex="01AF"/>
  <outline>
    <contour>
      <point x="731" y="1486" type="move" name="top"/>
    </contour>
    <contour>
      <point x="533" y="0" type="move" name="bottom"/>
    </contour>
    <contour>
      <point x="156" y="1486" type="line"/>
      <point x="147" y="1408" type="line"/>
      <point x="265" y="1390" type="line"/>
      <point x="157" y="580" type="line" smooth="yes"/>
      <point x="149" y="522"/>
      <point x="146" y="466"/>
      <point x="147" y="416" type="curve"/>
      <point x="144" y="147"/>
      <point x="270" y="-20"/>
      <point x="525" y="-20" type="curve"/>
      <point x="818" y="-20"/>
      <point x="988" y="152"/>
      <point x="1050" y="612" type="curve"/>
      <point x="1154" y="1390" type="line"/>
      <point x="1349" y="1418"/>
      <point x="1418" y="1500"/>
      <point x="1419" y="1686" type="curve"/>
      <point x="1419" y="1700"/>
      <point x="1418" y="1714"/>
      <point x="1416" y="1730" type="curve"/>
      <point x="1273" y="1730" type="line"/>
      <point x="1275" y="1722"/>
      <point x="1274" y="1710"/>
      <point x="1274" y="1696" type="curve"/>
      <point x="1272" y="1596"/>
      <point x="1232" y="1486"/>
      <point x="1090" y="1486" type="curve"/>
      <point x="928" y="1486" type="line"/>
      <point x="919" y="1407" type="line"/>
      <point x="1034" y="1388" type="line"/>
      <point x="930" y="612" type="line" smooth="yes"/>
      <point x="883" y="244"/>
      <point x="767" y="68"/>
      <point x="552" y="68" type="curve"/>
      <point x="379" y="68"/>
      <point x="299" y="199"/>
      <point x="300" y="408" type="curve"/>
      <point x="300" y="464"/>
      <point x="304" y="522"/>
      <point x="314" y="592" type="curve"/>
      <point x="422" y="1388" type="line"/>
      <point x="557" y="1407" type="line"/>
      <point x="567" y="1486" type="line"/>
    </contour>
  </outline>
</glyph>
<glyph name="Ezh" format="1">
  <advance width="1048"/>
  <outline>
    <contour>
      <point x="686" y="1486" type="move" name="top"/>
    </contour>
    <contour>
      <point x="400" y="-12" type="curve"/>
      <point x="701" y="-12"/>
      <point x="958" y="148"/>
      <point x="964" y="463" type="curve"/>
      <point x="970" y="707"/>
      <point x="818" y="826"/>
      <point x="656" y="826" type="curve"/>
      <point x="690" y="815" type="line"/>
      <point x="1099" y="1417" type="line"/>
      <point x="1083" y="1486" type="line"/>
      <point x="276" y="1486" type="line"/>
      <point x="221" y="1150" type="line"/>
      <point x="310" y="1133" type="line"/>
      <point x="395" y="1390" type="line"/>
      <point x="925" y="1396" type="line"/>
      <point x="777" y="1186" type="line"/>
      <point x="511" y="802" type="line"/>
      <point x="555" y="749" type="line"/>
      <point x="572" y="759"/>
      <point x="593" y="765"/>
      <point x="635" y="765" type="curve"/>
      <point x="724" y="765"/>
      <point x="796" y="617"/>
      <point x="793" y="450" type="curve"/>
      <point x="787" y="193"/>
      <point x="604" y="85"/>
      <point x="437" y="85" type="curve"/>
      <point x="317" y="85"/>
      <point x="231" y="111"/>
      <point x="193" y="142" type="curve"/>
      <point x="207" y="389" type="line"/>
      <point x="120" y="389" type="line"/>
      <point x="44" y="61" type="line"/>
      <point x="103" y="36"/>
      <point x="235" y="-12"/>
    </contour>
  </outline>
</glyph>
<glyph name="Germandbls" format="1">
  <advance width="1178"/>
  <outline>
    <contour>
      <point x="707" y="-22" type="curve"/>
      <point x="938" y="-22"/>
      <point x="1121" y="182"/>
      <point x="1127" y="443" type="curve"/>
      <point x="1132" y="704"/>
      <point x="928" y="820"/>
      <point x="789" y="896" type="curve"/>
      <point x="1071" y="1333" type="line"/>
      <point x="1078" y="1380" type="line"/>
      <point x="1016" y="1438"/>
      <point x="928" y="1492"/>
      <point x="732" y="1492" type="curve"/>
      <point x="430" y="1492"/>
      <point x="216" y="1224"/>
      <point x="174" y="890" type="curve"/>
      <point x="72" y="89" type="line"/>
      <point x="-34" y="66" type="line"/>
      <point x="-41" y="-12" type="line"/>
      <point x="216" y="-12" type="line"/>
      <point x="333" y="921" type="line" smooth="yes"/>
      <point x="371" y="1228"/>
      <point x="507" y="1406"/>
      <point x="704" y="1404" type="curve"/>
      <point x="851" y="1402"/>
      <point x="913" y="1326"/>
      <point x="929" y="1292" type="curve"/>
      <point x="654" y="838" type="line"/>
      <point x="649" y="814" type="line"/>
      <point x="755" y="772"/>
      <point x="967" y="624"/>
      <point x="962" y="400" type="curve"/>
      <point x="958" y="236"/>
      <point x="883" y="68"/>
      <point x="723" y="68" type="curve"/>
      <point x="640" y="68"/>
      <point x="564" y="104"/>
      <point x="543" y="144" type="curve"/>
      <point x="530" y="308" type="line"/>
      <point x="443" y="308" type="line"/>
      <point x="408" y="60" type="line"/>
      <point x="455" y="54"/>
      <point x="548" y="-22"/>
    </contour>
  </outline>
</glyph>
<glyph name="Gstroke" format="1">
  <advance width="1186"/>
  <outline>
    <contour>
      <point x="653" y="454" type="line"/>
      <point x="633" y="344" type="line"/>
      <point x="1177" y="344" type="line"/>
      <point x="1197" y="454" type="line"/>
    </contour>
    <contour>
      <point x="512" y="-16" type="curve"/>
      <point x="649" y="-16"/>
      <point x="772" y="30"/>
      <point x="859" y="60" type="curve"/>
      <point x="906" y="76"/>
      <point x="942" y="88"/>
      <point x="975" y="92" type="curve"/>
      <point x="1064" y="706" type="line"/>
      <point x="676" y="706" type="line"/>
      <point x="665" y="616" type="line"/>
      <point x="891" y="601" type="line"/>
      <point x="831" y="174" type="line"/>
      <point x="768" y="108"/>
      <point x="649" y="76"/>
      <point x="553" y="76" type="curve"/>
      <point x="330" y="76"/>
      <point x="247" y="362"/>
      <point x="250" y="630" type="curve"/>
      <point x="256" y="977"/>
      <point x="408" y="1410"/>
      <point x="728" y="1410" type="curve"/>
      <point x="860" y="1410"/>
      <point x="919" y="1380"/>
      <point x="963" y="1344" type="curve"/>
      <point x="963" y="1148" type="line"/>
      <point x="1064" y="1148" type="line"/>
      <point x="1119" y="1436" type="line"/>
      <point x="1108" y="1440"/>
      <point x="1096" y="1444"/>
      <point x="1084" y="1448" type="curve"/>
      <point x="1022" y="1468"/>
      <point x="920" y="1502"/>
      <point x="743" y="1502" type="curve"/>
      <point x="388" y="1502"/>
      <point x="93" y="1154"/>
      <point x="87" y="612" type="curve"/>
      <point x="84" y="310"/>
      <point x="203" y="-16"/>
    </contour>
  </outline>
</glyph>
<glyph name="Schwa" format="1">
  <advance width="1118"/>
  <outline>
    <contour>
      <point x="459" y="-22" type="curve"/>
      <point x="795" y="-22"/>
      <point x="1087" y="368"/>
      <point x="1098" y="904" type="curve"/>
      <point x="1106" y="1262"/>
      <point x="956" y="1502"/>
      <point x="692" y="1502" type="curve"/>
      <point x="446" y="1502"/>
      <point x="351" y="1430"/>
      <point x="256" y="1424" type="curve"/>
      <point x="210" y="1142" type="line"/>
      <point x="294" y="1142" type="line"/>
      <point x="352" y="1312" type="line"/>
      <point x="399" y="1356"/>
      <point x="498" y="1414"/>
      <point x="646" y="1414" type="curve"/>
      <point x="829" y="1414"/>
      <point x="949" y="1235"/>
      <point x="939" y="896" type="curve"/>
      <point x="938" y="846"/>
      <point x="935" y="797"/>
      <point x="931" y="752" type="curve"/>
      <point x="143" y="750" type="line"/>
      <point x="123" y="694"/>
      <point x="106" y="582"/>
      <point x="103" y="468" type="curve"/>
      <point x="97" y="156"/>
      <point x="228" y="-22"/>
    </contour>
    <contour>
      <point x="501" y="68" type="curve"/>
      <point x="328" y="68"/>
      <point x="251" y="252"/>
      <point x="255" y="442" type="curve"/>
      <point x="257" y="522"/>
      <point x="270" y="597"/>
      <point x="286" y="666" type="curve"/>
      <point x="920" y="666" type="line"/>
      <point x="864" y="272"/>
      <point x="696" y="68"/>
    </contour>
  </outline>
</glyph>
